# xmcd
# Track frame offsets:
# 150
# 14700
# 33346
# 49725
# 67709
# 78744
# 99390
# 116988
# 136678
# 154274
# 171870
# 186284
# 203811
# 217800
# 238446
# 257486
# 274559
# 291407
# 309097
#
# Disc length: 4498 seconds
# Revision: 0
# Processed by: cddbd v1.5.2PL0 Copyright (c) Steve Scherf et al.
# Submitted via: VisiTrax 2.10.0.248 - For more info visit www.synapsa.com
#
DISCID=0f119013
DTITLE=Various Artist - 360 Degrees P1.4 Promo Radio #54 10-02
DYEAR=2002
DGENRE=Country
TTITLE0=Carolyn Dawn Johnson - One Day Closer To You 108
TTITLE1=Steve Azar(s) - Waitin On Joe (S) 53
TTITLE2=Lonestar - Unusually Unusual  73
TTITLE3=Toby Keith - Whose Your Daddy 125
TTITLE4=Dwight Yoakam - Sitting Pretty 158
TTITLE5=Radney Foster - Everyday Angel 117
TTITLE6=Hal Ketchum - Richest Man In Texas 149
TTITLE7=Kellie Coffey - At The End Of The Day  85
TTITLE8=Natalie Grant - What Other Man 99
TTITLE9=Shannon Lawson - Dream Your Way To Me 98
TTITLE10=Tanya Tucker - A Memory Like Im Gonna Be 91
TTITLE11=Travis Tritt - Strong Enough To Be Your Man (s)
TTITLE12=Marie Sisters - Real Bad Mood 80
TTITLE13=Radney Foster - Everyday Angel 117
TTITLE14=Trisha Yearwood - I Dont Paint Myself Into Corners (s)
TTITLE15=Sawyer Brown - I Need A Girlfriend 121
TTITLE16=Jennifer Hanson - Beautiful Goodbye 113
TTITLE17=Keith Urban - Somebody Like You  111
TTITLE18=Bonnie Raitt - Silver Lining 84
EXTD=
EXTT0=2 Step
EXTT1=
EXTT2=2 Step
EXTT3=East /West Coast Swing
EXTT4=East Coast Swing
EXTT5=West Coast Swing
EXTT6=2 Step
EXTT7=
EXTT8=Cha Cha
EXTT9=Cha Cha
EXTT10=2 Step/Cha Cha
EXTT11=(s)ballad)
EXTT12=2 Step
EXTT13=West Coast
EXTT14=(s)ballad)
EXTT15=West Coast
EXTT16=East Coast
EXTT17=2 Step
EXTT18=Ballad
PLAYORDER=
